<mxfile host="Electron" agent="Mozilla/5.0 (Windows NT 10.0; Win64; x64) AppleWebKit/537.36 (KHTML, like Gecko) draw.io/27.0.5 Chrome/134.0.6998.205 Electron/35.3.0 Safari/537.36" version="27.0.5">
  <diagram name="Page-1" id="ei_3yb5bEw51BRnNa_Ay">
    <mxGraphModel dx="846" dy="610" grid="1" gridSize="10" guides="1" tooltips="1" connect="1" arrows="1" fold="1" page="1" pageScale="1" pageWidth="850" pageHeight="1100" math="0" shadow="0">
      <root>
        <mxCell id="0" />
        <mxCell id="1" parent="0" />
        <mxCell id="Wq5ttzvBXatKam3TWMUd-1" value="" style="rounded=0;whiteSpace=wrap;html=1;strokeColor=#E6E6E6;dashed=1;" vertex="1" parent="1">
          <mxGeometry x="24.35" y="120" width="150" height="540" as="geometry" />
        </mxCell>
        <mxCell id="Wq5ttzvBXatKam3TWMUd-3" value="Sources" style="rounded=0;whiteSpace=wrap;html=1;fontSize=18;labelBackgroundColor=none;textShadow=0;strokeColor=none;" vertex="1" parent="1">
          <mxGeometry x="51.85" y="100" width="95" height="40" as="geometry" />
        </mxCell>
        <mxCell id="Wq5ttzvBXatKam3TWMUd-5" value="" style="rounded=0;whiteSpace=wrap;html=1;strokeColor=#E6E6E6;dashed=1;" vertex="1" parent="1">
          <mxGeometry x="195" y="120" width="465" height="540" as="geometry" />
        </mxCell>
        <mxCell id="Wq5ttzvBXatKam3TWMUd-6" value="" style="rounded=0;whiteSpace=wrap;html=1;strokeColor=#E6E6E6;dashed=1;" vertex="1" parent="1">
          <mxGeometry x="687.5" y="120" width="150" height="540" as="geometry" />
        </mxCell>
        <mxCell id="Wq5ttzvBXatKam3TWMUd-7" value="Data Warehouse" style="rounded=0;whiteSpace=wrap;html=1;fontSize=18;labelBackgroundColor=none;textShadow=0;strokeColor=none;" vertex="1" parent="1">
          <mxGeometry x="345" y="100" width="170" height="40" as="geometry" />
        </mxCell>
        <mxCell id="Wq5ttzvBXatKam3TWMUd-8" value="Consume" style="rounded=0;whiteSpace=wrap;html=1;fontSize=18;labelBackgroundColor=none;textShadow=0;strokeColor=none;" vertex="1" parent="1">
          <mxGeometry x="715" y="100" width="95" height="40" as="geometry" />
        </mxCell>
        <mxCell id="Wq5ttzvBXatKam3TWMUd-9" value="Bronze Layer" style="rounded=0;whiteSpace=wrap;html=1;fillColor=light-dark(#FA6800,#990000);strokeColor=#C73500;fontColor=#000000;" vertex="1" parent="1">
          <mxGeometry x="210" y="150" width="130" height="30" as="geometry" />
        </mxCell>
        <mxCell id="Wq5ttzvBXatKam3TWMUd-10" value="Bronze Layer" style="rounded=0;whiteSpace=wrap;html=1;fillColor=#E6E6E6;strokeColor=#36393d;movable=1;resizable=1;rotatable=1;deletable=1;editable=1;locked=0;connectable=1;fontColor=#000000;" vertex="1" parent="1">
          <mxGeometry x="365" y="150" width="130" height="30" as="geometry" />
        </mxCell>
        <mxCell id="Wq5ttzvBXatKam3TWMUd-11" value="Bronze Layer" style="rounded=0;whiteSpace=wrap;html=1;fillColor=light-dark(#FA6800,#FF8000);strokeColor=#C73500;fontColor=light-dark(#FF8000, #000000);movable=1;resizable=1;rotatable=1;deletable=1;editable=1;locked=0;connectable=1;" vertex="1" parent="1">
          <mxGeometry x="520" y="150" width="130" height="30" as="geometry" />
        </mxCell>
        <mxCell id="Wq5ttzvBXatKam3TWMUd-15" value="" style="rounded=0;whiteSpace=wrap;html=1;fillColor=default;strokeColor=#C73500;fontColor=light-dark(#000000,#000000);labelBackgroundColor=none;" vertex="1" parent="1">
          <mxGeometry x="210" y="190" width="130" height="450" as="geometry" />
        </mxCell>
        <mxCell id="Wq5ttzvBXatKam3TWMUd-16" value="" style="rounded=0;html=1;fillColor=none;strokeColor=default;movable=1;resizable=1;rotatable=1;deletable=1;editable=1;locked=0;connectable=1;whiteSpace=wrap;labelBackgroundColor=#FFFFFF;" vertex="1" parent="1">
          <mxGeometry x="365" y="190" width="130" height="450" as="geometry" />
        </mxCell>
        <mxCell id="Wq5ttzvBXatKam3TWMUd-19" value="" style="rounded=0;whiteSpace=wrap;html=1;fillColor=none;strokeColor=light-dark(#C73500,#C77400);fontColor=light-dark(#FF8000, #000000);movable=1;resizable=1;rotatable=1;deletable=1;editable=1;locked=0;connectable=1;" vertex="1" parent="1">
          <mxGeometry x="520" y="190" width="130" height="450" as="geometry" />
        </mxCell>
        <mxCell id="Wq5ttzvBXatKam3TWMUd-20" value="CRM" style="image;aspect=fixed;html=1;points=[];align=center;fontSize=12;image=img/lib/azure2/general/Folder_Blank.svg;" vertex="1" parent="1">
          <mxGeometry x="74.71000000000001" y="190" width="49.29" height="40" as="geometry" />
        </mxCell>
        <mxCell id="Wq5ttzvBXatKam3TWMUd-22" value="ERP" style="image;aspect=fixed;html=1;points=[];align=center;fontSize=12;image=img/lib/azure2/general/Folder_Blank.svg;" vertex="1" parent="1">
          <mxGeometry x="74.71000000000001" y="295" width="49.29" height="40" as="geometry" />
        </mxCell>
        <mxCell id="Wq5ttzvBXatKam3TWMUd-23" value="" style="image;aspect=fixed;html=1;points=[];align=center;fontSize=12;image=img/lib/azure2/general/File.svg;" vertex="1" parent="1">
          <mxGeometry x="110" y="210" width="24.35" height="30" as="geometry" />
        </mxCell>
        <mxCell id="Wq5ttzvBXatKam3TWMUd-24" value="" style="image;aspect=fixed;html=1;points=[];align=center;fontSize=12;image=img/lib/azure2/general/File.svg;" vertex="1" parent="1">
          <mxGeometry x="110" y="310" width="24.35" height="30" as="geometry" />
        </mxCell>
        <mxCell id="Wq5ttzvBXatKam3TWMUd-28" value="" style="endArrow=none;html=1;rounded=0;exitX=0.2;exitY=0.667;exitDx=0;exitDy=0;exitPerimeter=0;" edge="1" parent="1">
          <mxGeometry width="50" height="50" relative="1" as="geometry">
            <mxPoint x="34.36" y="380.13" as="sourcePoint" />
            <mxPoint x="124.36" y="380" as="targetPoint" />
            <Array as="points">
              <mxPoint x="84.36" y="380" />
              <mxPoint x="124.36" y="380" />
              <mxPoint x="164.36" y="380" />
            </Array>
          </mxGeometry>
        </mxCell>
        <mxCell id="Wq5ttzvBXatKam3TWMUd-29" value="&lt;div&gt;&lt;span style=&quot;background-color: transparent; color: light-dark(rgb(0, 0, 0), rgb(255, 255, 255));&quot;&gt;&lt;font style=&quot;font-size: 11px;&quot;&gt;&lt;b style=&quot;&quot;&gt;Object Type:&lt;/b&gt; &lt;/font&gt;&lt;font style=&quot;font-size: 10px;&quot;&gt;CSV Files&lt;/font&gt;&lt;/span&gt;&lt;/div&gt;&lt;div&gt;&lt;span style=&quot;background-color: transparent; color: light-dark(rgb(0, 0, 0), rgb(255, 255, 255));&quot;&gt;&lt;font style=&quot;font-size: 11px;&quot;&gt;&lt;br&gt;&lt;/font&gt;&lt;/span&gt;&lt;/div&gt;&lt;div&gt;&lt;span style=&quot;background-color: transparent; color: light-dark(rgb(0, 0, 0), rgb(255, 255, 255));&quot;&gt;&lt;font style=&quot;font-size: 11px;&quot;&gt;&lt;b style=&quot;&quot;&gt;Interface: &lt;/b&gt;Files in Folders&lt;/font&gt;&lt;/span&gt;&lt;/div&gt;" style="text;html=1;align=left;verticalAlign=middle;whiteSpace=wrap;rounded=0;fontSize=8;" vertex="1" parent="1">
          <mxGeometry x="38.1" y="390" width="122.5" height="70" as="geometry" />
        </mxCell>
        <mxCell id="Wq5ttzvBXatKam3TWMUd-30" value="&lt;span&gt;&lt;font style=&quot;color: light-dark(rgb(0, 0, 0), rgb(255, 255, 255));&quot;&gt;Raw Data&lt;/font&gt;&lt;/span&gt;" style="html=1;verticalLabelPosition=bottom;align=center;labelBackgroundColor=none;verticalAlign=top;strokeWidth=2;strokeColor=light-dark(#0080F0,#FF3333);shadow=0;dashed=0;shape=mxgraph.ios7.icons.data;fillColor=#CC0000;" vertex="1" parent="1">
          <mxGeometry x="261.5" y="260" width="27" height="35" as="geometry" />
        </mxCell>
        <mxCell id="Wq5ttzvBXatKam3TWMUd-33" value="Cleaned,&lt;div&gt;Standardized&lt;/div&gt;&lt;div&gt;Data&lt;/div&gt;" style="html=1;verticalLabelPosition=bottom;align=center;labelBackgroundColor=none;verticalAlign=top;strokeWidth=2;strokeColor=light-dark(#0080F0,#E1D5E7);shadow=0;dashed=0;shape=mxgraph.ios7.icons.data;fillColor=#B3B3B3;" vertex="1" parent="1">
          <mxGeometry x="414" y="260" width="27" height="35" as="geometry" />
        </mxCell>
        <mxCell id="Wq5ttzvBXatKam3TWMUd-34" value="&lt;span&gt;&lt;font style=&quot;color: light-dark(rgb(0, 0, 0), rgb(255, 255, 255));&quot;&gt;Business-&lt;/font&gt;&lt;/span&gt;&lt;div&gt;&lt;span&gt;&lt;font style=&quot;color: light-dark(rgb(0, 0, 0), rgb(255, 255, 255));&quot;&gt;Ready Data&lt;/font&gt;&lt;/span&gt;&lt;/div&gt;" style="html=1;verticalLabelPosition=bottom;align=center;labelBackgroundColor=none;verticalAlign=top;strokeWidth=2;strokeColor=light-dark(#0080F0,#FFB366);shadow=0;dashed=0;shape=mxgraph.ios7.icons.data;fillColor=#FF8000;" vertex="1" parent="1">
          <mxGeometry x="571.5" y="260" width="27" height="35" as="geometry" />
        </mxCell>
        <mxCell id="Wq5ttzvBXatKam3TWMUd-38" value="" style="html=1;shadow=0;dashed=0;align=center;verticalAlign=middle;shape=mxgraph.arrows2.arrow;dy=0.8;dx=23.49;notch=0;fillColor=#66FFFF;" vertex="1" parent="1">
          <mxGeometry x="320" y="265" width="60" height="25" as="geometry" />
        </mxCell>
        <mxCell id="Wq5ttzvBXatKam3TWMUd-40" value="" style="html=1;shadow=0;dashed=0;align=center;verticalAlign=middle;shape=mxgraph.arrows2.arrow;dy=0.72;dx=20;notch=0;fillColor=#66FFFF;" vertex="1" parent="1">
          <mxGeometry x="481.5" y="265" width="50" height="25" as="geometry" />
        </mxCell>
        <mxCell id="Wq5ttzvBXatKam3TWMUd-41" value="" style="html=1;shadow=0;dashed=0;align=center;verticalAlign=middle;shape=mxgraph.arrows2.arrow;dy=0.72;dx=20;notch=0;fillColor=#66FFFF;" vertex="1" parent="1">
          <mxGeometry x="150" y="260" width="70" height="25" as="geometry" />
        </mxCell>
        <mxCell id="Wq5ttzvBXatKam3TWMUd-42" value="" style="html=1;shadow=0;dashed=0;align=center;verticalAlign=middle;shape=mxgraph.arrows2.arrow;dy=0.72;dx=20;notch=0;fillColor=#66FFFF;" vertex="1" parent="1">
          <mxGeometry x="640" y="265" width="60" height="25" as="geometry" />
        </mxCell>
        <mxCell id="Wq5ttzvBXatKam3TWMUd-43" value="" style="endArrow=none;html=1;rounded=0;" edge="1" parent="1">
          <mxGeometry width="50" height="50" relative="1" as="geometry">
            <mxPoint x="328.75" y="350" as="sourcePoint" />
            <mxPoint x="258.75" y="350" as="targetPoint" />
            <Array as="points">
              <mxPoint x="268.76" y="350" />
              <mxPoint x="221.25" y="350" />
            </Array>
          </mxGeometry>
        </mxCell>
        <mxCell id="Wq5ttzvBXatKam3TWMUd-46" value="&lt;div&gt;&lt;span style=&quot;background-color: transparent; color: light-dark(rgb(0, 0, 0), rgb(255, 255, 255));&quot;&gt;&lt;font style=&quot;&quot;&gt;&lt;b style=&quot;&quot;&gt;&lt;font style=&quot;font-size: 11px;&quot;&gt;Object Type:&lt;/font&gt;&lt;/b&gt;&lt;span style=&quot;font-size: 10px;&quot;&gt;&amp;nbsp;Tables&lt;/span&gt;&lt;/font&gt;&lt;/span&gt;&lt;/div&gt;&lt;div&gt;&lt;span style=&quot;background-color: transparent; color: light-dark(rgb(0, 0, 0), rgb(255, 255, 255));&quot;&gt;&lt;font style=&quot;font-size: 10px;&quot;&gt;&lt;br&gt;&lt;/font&gt;&lt;/span&gt;&lt;/div&gt;&lt;div&gt;&lt;span style=&quot;background-color: transparent; color: light-dark(rgb(0, 0, 0), rgb(255, 255, 255));&quot;&gt;&lt;font style=&quot;font-size: 10px;&quot;&gt;&lt;b&gt;Load:&amp;nbsp;&lt;/b&gt;&lt;/font&gt;&lt;/span&gt;&lt;/div&gt;&lt;font style=&quot;font-size: 10px;&quot;&gt;&lt;span style=&quot;background-color: transparent; color: light-dark(rgb(0, 0, 0), rgb(255, 255, 255));&quot;&gt;- Batch Processing&lt;/span&gt;&lt;br&gt;&lt;span style=&quot;background-color: transparent; color: light-dark(rgb(0, 0, 0), rgb(255, 255, 255));&quot;&gt;- Full Load&lt;/span&gt;&lt;br&gt;&lt;/font&gt;&lt;div&gt;&lt;span style=&quot;background-color: transparent; color: light-dark(rgb(0, 0, 0), rgb(255, 255, 255));&quot;&gt;&lt;font style=&quot;font-size: 10px;&quot;&gt;- Truncate &amp;amp; Insert&lt;/font&gt;&lt;/span&gt;&lt;/div&gt;&lt;div&gt;&lt;b style=&quot;background-color: transparent; color: light-dark(rgb(0, 0, 0), rgb(255, 255, 255));&quot;&gt;&lt;font style=&quot;font-size: 10px;&quot;&gt;&lt;br&gt;&lt;/font&gt;&lt;/b&gt;&lt;/div&gt;&lt;div&gt;&lt;span style=&quot;background-color: transparent; color: light-dark(rgb(0, 0, 0), rgb(255, 255, 255));&quot;&gt;&lt;font style=&quot;font-size: 10px;&quot;&gt;No &lt;b&gt;Transformations&lt;/b&gt;&lt;/font&gt;&lt;/span&gt;&lt;/div&gt;&lt;div&gt;&lt;br&gt;&lt;/div&gt;&lt;div&gt;&lt;font style=&quot;font-size: 11px;&quot;&gt;&lt;b style=&quot;&quot;&gt;Data Model:&lt;/b&gt; &lt;/font&gt;&lt;font style=&quot;font-size: 10px;&quot;&gt;None (as-is)&lt;/font&gt;&lt;/div&gt;&lt;div&gt;&lt;b style=&quot;background-color: transparent; color: light-dark(rgb(0, 0, 0), rgb(255, 255, 255));&quot;&gt;&lt;font style=&quot;font-size: 8px;&quot;&gt;&lt;br&gt;&lt;/font&gt;&lt;/b&gt;&lt;/div&gt;" style="text;html=1;align=left;verticalAlign=middle;whiteSpace=wrap;rounded=0;" vertex="1" parent="1">
          <mxGeometry x="220" y="360" width="110" height="180" as="geometry" />
        </mxCell>
        <mxCell id="Wq5ttzvBXatKam3TWMUd-50" value="" style="endArrow=none;html=1;rounded=0;" edge="1" parent="1">
          <mxGeometry width="50" height="50" relative="1" as="geometry">
            <mxPoint x="483.75" y="350" as="sourcePoint" />
            <mxPoint x="413.75" y="350" as="targetPoint" />
            <Array as="points">
              <mxPoint x="423.76" y="350" />
              <mxPoint x="376.25" y="350" />
            </Array>
          </mxGeometry>
        </mxCell>
        <mxCell id="Wq5ttzvBXatKam3TWMUd-51" value="" style="endArrow=none;html=1;rounded=0;" edge="1" parent="1">
          <mxGeometry width="50" height="50" relative="1" as="geometry">
            <mxPoint x="638.75" y="350" as="sourcePoint" />
            <mxPoint x="568.75" y="350" as="targetPoint" />
            <Array as="points">
              <mxPoint x="578.76" y="350" />
              <mxPoint x="531.25" y="350" />
            </Array>
          </mxGeometry>
        </mxCell>
        <mxCell id="Wq5ttzvBXatKam3TWMUd-52" value="&lt;div&gt;&lt;span style=&quot;background-color: transparent; color: light-dark(rgb(0, 0, 0), rgb(255, 255, 255));&quot;&gt;&lt;font style=&quot;&quot;&gt;&lt;b style=&quot;&quot;&gt;&lt;font style=&quot;font-size: 11px;&quot;&gt;Object Type:&lt;/font&gt;&lt;/b&gt;&lt;span style=&quot;font-size: 10px;&quot;&gt;&amp;nbsp;Tables&lt;/span&gt;&lt;/font&gt;&lt;/span&gt;&lt;/div&gt;&lt;div&gt;&lt;span style=&quot;background-color: transparent; color: light-dark(rgb(0, 0, 0), rgb(255, 255, 255));&quot;&gt;&lt;font style=&quot;font-size: 10px;&quot;&gt;&lt;br&gt;&lt;/font&gt;&lt;/span&gt;&lt;/div&gt;&lt;div&gt;&lt;span style=&quot;background-color: transparent; color: light-dark(rgb(0, 0, 0), rgb(255, 255, 255));&quot;&gt;&lt;font style=&quot;font-size: 10px;&quot;&gt;&lt;b&gt;Load:&amp;nbsp;&lt;/b&gt;&lt;/font&gt;&lt;/span&gt;&lt;/div&gt;&lt;font style=&quot;font-size: 10px;&quot;&gt;&lt;span style=&quot;background-color: transparent; color: light-dark(rgb(0, 0, 0), rgb(255, 255, 255));&quot;&gt;- Batch Processing&lt;/span&gt;&lt;br&gt;&lt;span style=&quot;background-color: transparent; color: light-dark(rgb(0, 0, 0), rgb(255, 255, 255));&quot;&gt;- Full Load&lt;/span&gt;&lt;br&gt;&lt;span style=&quot;background-color: transparent; color: light-dark(rgb(0, 0, 0), rgb(255, 255, 255));&quot;&gt;- Truncate &amp;amp; Insert&lt;/span&gt;&lt;br&gt;&lt;/font&gt;&lt;div&gt;&lt;b style=&quot;font-size: 10px; background-color: transparent; color: light-dark(rgb(0, 0, 0), rgb(255, 255, 255));&quot;&gt;&lt;br&gt;&lt;/b&gt;&lt;/div&gt;&lt;div&gt;&lt;b style=&quot;background-color: transparent; color: light-dark(rgb(0, 0, 0), rgb(255, 255, 255));&quot;&gt;&lt;font style=&quot;font-size: 11px;&quot;&gt;Transformations&lt;/font&gt;&lt;/b&gt;&lt;b style=&quot;font-size: 10px; background-color: transparent; color: light-dark(rgb(0, 0, 0), rgb(255, 255, 255));&quot;&gt;:&lt;/b&gt;&lt;/div&gt;&lt;div&gt;&lt;span style=&quot;font-size: 10px; background-color: transparent; color: light-dark(rgb(0, 0, 0), rgb(255, 255, 255));&quot;&gt;- Data Cleaning&lt;/span&gt;&lt;/div&gt;&lt;div&gt;&lt;span style=&quot;font-size: 10px; background-color: transparent; color: light-dark(rgb(0, 0, 0), rgb(255, 255, 255));&quot;&gt;- Data Standarization&lt;/span&gt;&lt;/div&gt;&lt;div&gt;&lt;span style=&quot;font-size: 10px; background-color: transparent; color: light-dark(rgb(0, 0, 0), rgb(255, 255, 255));&quot;&gt;- Data Normalization&lt;/span&gt;&lt;/div&gt;&lt;div&gt;&lt;span style=&quot;font-size: 10px; background-color: transparent; color: light-dark(rgb(0, 0, 0), rgb(255, 255, 255));&quot;&gt;- Derived Columns&lt;/span&gt;&lt;/div&gt;&lt;div&gt;&lt;span style=&quot;font-size: 10px; background-color: transparent; color: light-dark(rgb(0, 0, 0), rgb(255, 255, 255));&quot;&gt;- Data Enrichment&lt;/span&gt;&lt;/div&gt;&lt;div&gt;&lt;br&gt;&lt;/div&gt;&lt;div&gt;&lt;font style=&quot;font-size: 11px;&quot;&gt;&lt;b style=&quot;&quot;&gt;Data Model:&lt;/b&gt; &lt;/font&gt;&lt;font style=&quot;font-size: 10px;&quot;&gt;None (as-is)&lt;/font&gt;&lt;/div&gt;&lt;div&gt;&lt;b style=&quot;background-color: transparent; color: light-dark(rgb(0, 0, 0), rgb(255, 255, 255));&quot;&gt;&lt;font style=&quot;font-size: 8px;&quot;&gt;&lt;br&gt;&lt;/font&gt;&lt;/b&gt;&lt;/div&gt;" style="text;html=1;align=left;verticalAlign=middle;whiteSpace=wrap;rounded=0;" vertex="1" parent="1">
          <mxGeometry x="375" y="360" width="110" height="250" as="geometry" />
        </mxCell>
        <mxCell id="Wq5ttzvBXatKam3TWMUd-53" value="&lt;div&gt;&lt;span style=&quot;background-color: transparent; color: light-dark(rgb(0, 0, 0), rgb(255, 255, 255));&quot;&gt;&lt;font style=&quot;&quot;&gt;&lt;b style=&quot;&quot;&gt;&lt;font style=&quot;font-size: 11px;&quot;&gt;Object Type:&lt;/font&gt;&lt;/b&gt;&lt;span style=&quot;font-size: 10px;&quot;&gt;&amp;nbsp;Views&lt;/span&gt;&lt;/font&gt;&lt;/span&gt;&lt;/div&gt;&lt;div&gt;&lt;span style=&quot;background-color: transparent; color: light-dark(rgb(0, 0, 0), rgb(255, 255, 255));&quot;&gt;&lt;font style=&quot;font-size: 10px;&quot;&gt;&lt;br&gt;&lt;/font&gt;&lt;/span&gt;&lt;/div&gt;&lt;div&gt;&lt;span style=&quot;background-color: transparent; color: light-dark(rgb(0, 0, 0), rgb(255, 255, 255));&quot;&gt;&lt;font style=&quot;&quot;&gt;&lt;span style=&quot;font-size: 10px;&quot;&gt;No &lt;/span&gt;&lt;b style=&quot;&quot;&gt;&lt;font style=&quot;font-size: 11px;&quot;&gt;Load&lt;/font&gt;&lt;/b&gt;&lt;/font&gt;&lt;/span&gt;&lt;/div&gt;&lt;div&gt;&lt;span style=&quot;background-color: transparent; color: light-dark(rgb(0, 0, 0), rgb(255, 255, 255));&quot;&gt;&lt;font style=&quot;&quot;&gt;&lt;b style=&quot;&quot;&gt;&lt;font style=&quot;font-size: 11px;&quot;&gt;&lt;br&gt;&lt;/font&gt;&lt;/b&gt;&lt;/font&gt;&lt;/span&gt;&lt;/div&gt;&lt;b style=&quot;background-color: transparent; color: light-dark(rgb(0, 0, 0), rgb(255, 255, 255)); font-size: 10px;&quot;&gt;Transformations:&lt;/b&gt;&lt;div&gt;&lt;span style=&quot;font-size: 10px;&quot;&gt;- Data Integrations&lt;/span&gt;&lt;/div&gt;&lt;div&gt;&lt;span style=&quot;font-size: 10px;&quot;&gt;- Aggregations&lt;/span&gt;&lt;/div&gt;&lt;div&gt;&lt;span style=&quot;font-size: 10px;&quot;&gt;- Business Logics&lt;br&gt;&lt;/span&gt;&lt;div&gt;&lt;br&gt;&lt;/div&gt;&lt;div&gt;&lt;font style=&quot;font-size: 11px;&quot;&gt;&lt;b style=&quot;&quot;&gt;Data Model:&lt;/b&gt;&amp;nbsp;&lt;/font&gt;&lt;/div&gt;&lt;div&gt;&lt;font style=&quot;font-size: 10px;&quot;&gt;- Star Schema&lt;/font&gt;&lt;/div&gt;&lt;div&gt;&lt;font style=&quot;font-size: 10px;&quot;&gt;- Flat Table&lt;/font&gt;&lt;/div&gt;&lt;div&gt;&lt;font style=&quot;font-size: 10px;&quot;&gt;- Aggregated Table&lt;/font&gt;&lt;/div&gt;&lt;div&gt;&lt;b style=&quot;background-color: transparent; color: light-dark(rgb(0, 0, 0), rgb(255, 255, 255));&quot;&gt;&lt;font style=&quot;font-size: 8px;&quot;&gt;&lt;br&gt;&lt;/font&gt;&lt;/b&gt;&lt;/div&gt;&lt;/div&gt;" style="text;html=1;align=left;verticalAlign=middle;whiteSpace=wrap;rounded=0;" vertex="1" parent="1">
          <mxGeometry x="530" y="360" width="110" height="210" as="geometry" />
        </mxCell>
        <mxCell id="Wq5ttzvBXatKam3TWMUd-54" value="" style="image;aspect=fixed;html=1;points=[];align=center;fontSize=12;image=img/lib/azure2/power_platform/PowerBI.svg;" vertex="1" parent="1">
          <mxGeometry x="715" y="210" width="45" height="60" as="geometry" />
        </mxCell>
        <mxCell id="Wq5ttzvBXatKam3TWMUd-55" value="" style="verticalLabelPosition=bottom;aspect=fixed;html=1;shape=mxgraph.salesforce.analytics;" vertex="1" parent="1">
          <mxGeometry x="768.98" y="220" width="51.02" height="50" as="geometry" />
        </mxCell>
        <mxCell id="Wq5ttzvBXatKam3TWMUd-56" value="" style="sketch=0;points=[[0,0,0],[0.25,0,0],[0.5,0,0],[0.75,0,0],[1,0,0],[0,1,0],[0.25,1,0],[0.5,1,0],[0.75,1,0],[1,1,0],[0,0.25,0],[0,0.5,0],[0,0.75,0],[1,0.25,0],[1,0.5,0],[1,0.75,0]];outlineConnect=0;fontColor=#232F3E;fillColor=#8C4FFF;strokeColor=#ffffff;dashed=0;verticalLabelPosition=bottom;verticalAlign=top;align=center;html=1;fontSize=12;fontStyle=0;aspect=fixed;shape=mxgraph.aws4.resourceIcon;resIcon=mxgraph.aws4.elasticsearch_service;" vertex="1" parent="1">
          <mxGeometry x="738" y="350" width="49" height="49" as="geometry" />
        </mxCell>
        <mxCell id="Wq5ttzvBXatKam3TWMUd-58" value="" style="dashed=0;outlineConnect=0;html=1;align=center;labelPosition=center;verticalLabelPosition=bottom;verticalAlign=top;shape=mxgraph.webicons.dzone;gradientColor=none;fillColor=default;" vertex="1" parent="1">
          <mxGeometry x="727.5" y="480" width="70" height="70" as="geometry" />
        </mxCell>
        <mxCell id="Wq5ttzvBXatKam3TWMUd-59" value="BI &amp;amp; Reporting" style="text;html=1;align=center;verticalAlign=middle;whiteSpace=wrap;rounded=0;" vertex="1" parent="1">
          <mxGeometry x="712.5" y="270" width="100" height="30" as="geometry" />
        </mxCell>
        <mxCell id="Wq5ttzvBXatKam3TWMUd-61" value="Ad-Hoc&lt;div&gt;SQL Queries&lt;/div&gt;" style="text;html=1;align=center;verticalAlign=middle;whiteSpace=wrap;rounded=0;" vertex="1" parent="1">
          <mxGeometry x="712.5" y="399" width="100" height="30" as="geometry" />
        </mxCell>
        <mxCell id="Wq5ttzvBXatKam3TWMUd-62" value="Machine Learning" style="text;html=1;align=center;verticalAlign=middle;whiteSpace=wrap;rounded=0;" vertex="1" parent="1">
          <mxGeometry x="712.5" y="540" width="100" height="30" as="geometry" />
        </mxCell>
      </root>
    </mxGraphModel>
  </diagram>
</mxfile>
